# xmcd CD database file
# Copyright (C) 1997 Ti Kan
# 
# Track frame offsets:
#     150
#     11947
#     18745
#     28495
#     39900
#     51915
#     60265
#     68240
#     79855
#     89297
#     104412
#     116307
#     130382
#     143875
#     153875
#     161755
# 
# Disc length: 2335 seconds
# 
# Revision: 1
# Processed by: cddbd v1.4b41PL1 Copyright (c) Steve Scherf et al.
# Submitted via: DiscPlay 4.0.4
# 
DISCID=d7091d10
DTITLE=Various Artist - Orange Blossom Special
DYEAR=1900
DGENRE=
TTITLE0=Orange Blossom Special
TTITLE1=Salty Dog Blues
TTITLE2=Secret Love
TTITLE3=Black and White Rag
TTITLE4=Tylers uition
TTITLE5=Life in the Finland Woods
TTITLE6=Beautiful Dreamer
TTITLE7=Two in the Morning
TTITLE8=Devil's Dream
TTITLE9=Draggin the Bow
TTITLE10=Rocky Ford
TTITLE11=Hornpipe Medley
TTITLE12=Crafton Blues
TTITLE13=Flower of Mexico
TTITLE14=Black Eyed Susan
TTITLE15=Over the Rainbow
EXTD=
EXTT0=
EXTT1=
EXTT2=
EXTT3=
EXTT4=
EXTT5=
EXTT6=
EXTT7=
EXTT8=
EXTT9=
EXTT10=
EXTT11=
EXTT12=
EXTT13=
EXTT14=
EXTT15=
PLAYORDER=
